<svg xmlns="http://www.w3.org/2000/svg" version="1.1" xmlns:xlink="http://www.w3.org/1999/xlink" xmlns:svgjs="http://svgjs.com/svgjs" width="1000" height="1000"><rect width="1000" height="1000" rx="200" ry="200" fill="#555555"></rect><g transform="matrix(0.625,0,0,0.625,100,180)"><svg xmlns="http://www.w3.org/2000/svg" version="1.1" xmlns:xlink="http://www.w3.org/1999/xlink" xmlns:svgjs="http://svgjs.com/svgjs" width="1280" height="1024"><svg xmlns="http://www.w3.org/2000/svg" xmlns:xlink="http://www.w3.org/1999/xlink" version="1.1" width="1280" height="1024" viewBox="0 0 1280 1024" xml:space="preserve">
<desc>Created with Fabric.js 5.3.0</desc>
<defs>
</defs>
<g transform="matrix(1 0 0 1 640 512)" id="background-logo">
<rect style="stroke: none; stroke-width: 0; stroke-dasharray: none; stroke-linecap: butt; stroke-dashoffset: 0; stroke-linejoin: miter; stroke-miterlimit: 4; fill: rgb(255,255,255); fill-opacity: 0; fill-rule: nonzero; opacity: 1;" paint-order="stroke" x="-640" y="-512" rx="0" ry="0" width="1280" height="1024"></rect>
</g>
<g transform="matrix(1.9211538461538462 0 0 1.9211538461538462 640.345914127424 416.44192711416986)" id="logo-logo">
<g style="" paint-order="stroke">
		<g transform="matrix(2.8762042471009606 0 0 2.8762042471009606 0 2.842171e-14)">
<path style="stroke: none; stroke-width: 1; stroke-dasharray: none; stroke-linecap: butt; stroke-dashoffset: 0; stroke-linejoin: miter; stroke-miterlimit: 4; fill: rgb(170,161,2); fill-rule: nonzero; opacity: 1;" paint-order="stroke" transform=" translate(-297.44628910000006, -421.8149414)" d="M 298.4785156 392.5478516 L 309.3457031 404.71923830000003 L 307.5019531 406.81542970000004 L 297.4458008 395.55224610000005 L 287.3735352 406.83349610000005 L 285.53027349999996 404.73730470000004 L 297.4458008 391.39160160000006 L 298.4785156 392.5478516 L 298.4785156 392.5478516 z M 279.2070313 457.0463867 C 280.03027349999996 456.7133789 281.1381836 456.3823242 282.4438477 456.28955080000003 C 284.24121099999996 456.16064450000005 286.4028321 456.4799805 288.6855469 457.8540039 C 292.8540039 460.3618164 296.2211914 458.4985352 296.6542969 458.2368164 L 296.65234380000004 458.23486330000003 C 296.66748050000007 458.22509770000005 301.79101570000006 454.5893555 307.7714844 458.18603520000005 C 308.5839844 458.67529300000007 309.37109380000004 458.99755860000005 310.11328130000004 459.19775400000003 C 310.9765626 459.43017590000005 311.7714844 459.49560560000003 312.4765626 459.46435560000003 L 312.4765626 459.48486340000005 C 314.1035157 458.42431650000003 315.6132814 457.19775400000003 316.98242200000004 455.82959000000005 C 317.1660158 455.64697280000007 317.34765640000006 455.4604494000001 317.5253908 455.27197280000007 C 317.39062520000004 455.3510744000001 317.32031270000004 455.40087910000005 317.32031270000004 455.4018556000001 L 317.2753908 455.4291994000001 C 317.2617189 455.4379885000001 312.2910158 458.69384780000007 306.3476564 455.11865250000005 C 301.9218751 452.45556660000005 298.2500001 455.0620119000001 298.2402345 455.0698244000001 L 298.1914064 455.09716820000006 C 298.1757814 455.10595730000006 293.2050783 458.36181660000005 287.2617189 454.78662130000004 C 282.8359376 452.12353540000004 279.1645509 454.72998070000006 279.1538087 454.73681660000005 L 279.1157228 454.75927750000005 C 279.11279310000003 454.76025410000005 278.5439455 455.13330090000005 277.5756837 455.49072280000007 C 277.6860353 455.60400410000005 277.7973634 455.71728530000007 277.90966810000003 455.82959000000005 C 278.3291016 456.2495117 278.7617188 456.6547852 279.2070313 457.0463867 L 279.2070313 457.0463867 z M 308.546875 461.6166992 C 307.8359375 461.36279290000004 307.0996094 461.02001950000005 306.3476562 460.56591790000004 C 301.92187490000003 457.9038085 298.24999990000003 460.51025380000004 298.2402343 460.51708980000006 L 298.1914062 460.54443360000005 C 298.1757812 460.5541992 293.2045898 463.80908200000005 287.2617187 460.2338867 C 285.55468740000003 459.20654290000004 283.958496 458.9672851 282.6401367 459.0610351 C 282.3867187 459.0786132 282.14355470000004 459.1088867 281.91162110000005 459.1489257 C 286.34765630000004 462.1801757 291.69970700000005 463.9575195 297.44580080000003 463.9575195 C 301.3886719 463.9575195 305.1445313 463.1206055 308.546875 461.6166992 L 308.546875 461.6166992 z M 275.581543 453.1889648 C 276.6948243 452.9565429 277.4033203 452.5561523 277.5678711 452.4565429 L 277.5668945 452.4545898 C 277.5815429 452.4438476 282.7060547 448.809082 288.6855468 452.4057617 C 292.8544921 454.9135742 296.2211913 453.050293 296.6542968 452.78955080000003 L 296.6523437 452.78759770000005 C 296.66748040000004 452.77685550000007 301.79101560000004 449.14111330000003 307.7714843 452.73779300000007 C 311.9531249 455.25341800000007 315.3281249 453.37158210000007 315.7441406 453.11962890000007 C 315.7578125 453.1098633000001 317.6796875 451.7504883000001 320.51171869999996 451.51708980000006 C 321.10742179999994 450.61865230000006 321.65234369999996 449.68408200000005 322.1425781 448.7163085000001 C 319.3222656 448.3969726000001 317.33203119999996 449.8100585000001 317.3261718 449.81396480000006 L 317.2753905 449.84716790000004 C 317.2617186 449.85595700000005 312.2910155 453.11181630000004 306.3476561 449.536621 C 301.9218748 446.8735351 298.2499998 449.47998040000004 298.2402342 449.48779290000004 L 298.1914061 449.5141601 C 298.1757811 449.5239257 293.205078 452.7797851 287.2617186 449.2036132 C 282.8359373 446.5415038 279.1645506 449.1479491 279.1538084 449.1547851 L 279.1103514 449.1821289 C 279.10205060000004 449.1870117 276.9389647 450.6030273 273.76464830000003 450.5454102 C 274.3198242 451.4624023 274.9267578 452.3442383 275.581543 453.1889648 L 275.581543 453.1889648 z M 272.2006836 447.5708008 C 275.1201172 448.25732419999997 277.2485352 447.06494139999995 277.56835939999996 446.871582 C 277.6357422 446.8237304 282.7373047 443.2456054 288.68554689999996 446.8237304 C 292.8544922 449.3315429 296.22119139999995 447.46826169999997 296.65429689999996 447.2075195 L 296.6523438 447.2045898 C 296.6674805 447.1948242 301.7910157 443.559082 307.77148439999996 447.1557617 C 312.0507813 449.73095700000005 315.48632819999995 447.6977539 315.76757819999995 447.5219726 C 316.10156259999997 447.2973632 319.2148437999999 445.2875976 323.30468759999997 446.0942382 C 323.63671889999995 445.224121 323.9277345 444.333496 324.17187509999997 443.4243163 L 270.72070319999995 443.4243163 C 271.1049805 444.8549805 271.6020508 446.2397461 272.2006836 447.5708008 L 272.2006836 447.5708008 z M 270.1264648 440.6420898 L 324.765625 440.6420898 C 324.9921875 439.2250976 325.109375 437.7719726 325.109375 436.293457 L 325.109375 427.65478509999997 L 325.109375 422.0649413 L 309.96875 422.0649413 L 306.2773437 419.0249022 L 318.4042968 419.0249022 L 311.0468749 410.7861327 L 312.8906249 408.6899413 L 322.34765619999996 419.2827147 L 325.10937499999994 419.2827147 L 325.10937499999994 416.4589842 L 314.7363280999999 404.8398436 L 303.8535155999999 417.0292967 L 301.71093749999994 415.2661131 L 305.7050780999999 410.79248029999997 L 314.7363280999999 400.679199 L 325.10937499999994 412.29833959999996 L 325.10937499999994 407.33642549999996 C 325.10937499999994 399.7304685 321.99804689999996 392.81445279999997 316.98242189999996 387.79980439999997 C 311.96679689999996 382.785156 305.05273439999996 379.67236299999996 297.44628909999994 379.67236299999996 C 289.8398437999999 379.67236299999996 282.92431639999995 382.785156 277.90966799999995 387.79980439999997 C 272.89501959999996 392.81445279999997 269.78222659999994 399.7304685 269.78222659999994 407.33642549999996 L 269.78222659999994 412.29833959999996 L 280.15576179999994 400.679199 L 281.18847659999994 401.83593729999996 L 293.25781249999994 415.35400369999996 L 291.15722659999994 417.1611326 L 287.1210937999999 412.64062479999996 L 280.15624999999994 404.8398435 L 269.78222659999994 416.45898409999995 L 269.78222659999994 419.28271459999996 L 272.54345709999996 419.28271459999996 L 281.98437509999997 408.7084958 L 283.82812509999997 410.80419889999996 L 276.4882813 419.02490199999994 L 288.9907227 419.02490199999994 L 285.4580079 422.06494109999994 L 269.7822266 422.06494109999994 L 269.7822266 436.2934566999999 C 269.7822266 437.7719727 269.9003906 439.2250977 270.1264648 440.6420898 L 270.1264648 440.6420898 z M 282.5175781 429.6293945 C 281.9262695 430.11572259999997 281.0527343 430.03076169999997 280.5668945 429.4389648 C 280.0805664 428.8481445 280.1655273 427.9750976 280.7568359 427.4887695 L 296.5659179 414.4697265 C 297.0927734 414.0356445 297.8452148 414.0566406 298.3457031 414.48583979999995 L 314.1347656 427.48876949999993 C 314.7265625 427.9750975999999 314.81054689999996 428.84814449999993 314.32617189999996 429.43896479999995 C 313.8398438 430.03076169999997 312.9648438 430.11572259999997 312.37499999999994 429.62939449999993 L 311.2285155999999 428.6860350999999 L 311.2285155999999 436.39404289999993 C 311.2285155999999 437.1625975999999 310.6054686999999 437.78564449999993 309.8378905999999 437.78564449999993 L 285.05468749999994 437.78564449999993 C 284.28613279999996 437.78564449999993 283.66308589999994 437.1625975999999 283.66308589999994 436.39404289999993 L 283.66308589999994 428.6860350999999 L 282.5175781 429.6293945 L 282.5175781 429.6293945 z M 299.5859375 419.0981445 L 295.3061523 419.0981445 L 294.1694335 420.0336914 L 300.7226562 420.0336914 L 299.5859375 419.0981445 L 299.5859375 419.0981445 z M 304.1015625 422.815918 L 290.7910156 422.815918 L 289.65625 423.75048830000003 L 305.2363281 423.75048830000003 L 304.1015625 422.815918 L 304.1015625 422.815918 z M 308.4453125 426.5336914 L 286.44580080000003 426.5336914 L 286.44580080000003 427.5170898 L 308.4453125 427.5170898 L 308.4453125 426.5336914 L 308.4453125 426.5336914 z M 308.4453125 430.2993164 L 286.44580080000003 430.2993164 L 286.44580080000003 431.2338867 L 308.4453125 431.2338867 L 308.4453125 430.2993164 L 308.4453125 430.2993164 z M 308.4453125 434.0161133 L 286.44580080000003 434.0161133 L 286.44580080000003 435.00341799999995 L 308.4453125 435.00341799999995 L 308.4453125 434.0161133 L 308.4453125 434.0161133 z M 327.8925781 415.9746094 L 327.8925781 422.0649414 L 327.8925781 436.293457 C 327.8925781 444.6674804 324.4667968 452.27978509999997 318.94921869999996 457.7973633 C 313.4316405999999 463.3149415 305.8203124 466.7397461 297.446289 466.7397461 C 289.0717773 466.7397461 281.4599609 463.3149414 275.9423827 457.7973633 C 270.4248045 452.27978519999994 267 444.6674805 267 436.293457 L 267 422.0649414 L 267 415.9370117 L 267 407.33642580000003 C 267 398.96240240000003 270.4248047 391.35009770000005 275.9423828 385.83251950000005 C 281.45996090000006 380.31494130000004 289.0717773 376.8901367 297.44580080000003 376.8901367 C 305.8203125 376.8901367 313.43164060000004 380.3149414 318.94921880000004 385.83251950000005 C 324.46679700000004 391.3500976000001 327.89257820000006 398.96240230000006 327.89257820000006 407.33642580000003 L 327.89257820000006 415.9370117 L 327.89257820000006 415.9746094 L 327.8925781 415.9746094 z" stroke-linecap="round"></path>
</g>
</g>
</g>
<g transform="matrix(1.9211538461538462 0 0 1.9211538461538462 637.5722482620392 753.4020755890413)" id="text-logo">
<g style="" paint-order="stroke">
		<g transform="matrix(1 0 0 1 0 0)" id="text-logo-path-0">
<path style="stroke: none; stroke-width: 0; stroke-dasharray: none; stroke-linecap: butt; stroke-dashoffset: 0; stroke-linejoin: miter; stroke-miterlimit: 4; fill: rgb(170,161,2); fill-rule: nonzero; opacity: 1;" paint-order="stroke" transform=" translate(-201.16, 35.42)" d="M 9.93 0 L 21.71 0 L 30.95 -53.9 L 22.48 -53.9 L 15.86 -15.02 L 9.16 -53.9 L 0.69 -53.9 Z M 44.35 -53.9 L 44.35 0 L 52.82 0 L 52.82 -53.9 Z M 40.5 -57.75 L 48.2 -57.75 L 56.67 -71.61 L 48.2 -71.61 Z M 85.39 -45.43 L 65.37 -8.47 L 65.37 0 L 94.63 0 L 94.63 -8.47 L 74.61 -8.47 L 94.63 -45.43 L 94.63 -53.9 L 66.14 -53.9 L 66.14 -45.43 Z M 108.34 -53.9 L 108.34 0 L 116.81 0 L 116.81 -23.48 L 132.21 -23.48 L 132.21 -31.95 L 116.81 -31.95 L 116.81 -45.43 L 133.75 -45.43 L 133.75 -53.9 Z M 148.53 -39.58 L 148.53 -14.32 C 148.53 -5.54 154.54 0.77 163.7 0.77 C 172.48 0.77 178.79 -5.24 178.79 -14.32 L 178.79 -39.58 C 178.79 -48.36 172.79 -54.67 163.7 -54.67 C 154.92 -54.67 148.53 -48.82 148.53 -39.58 Z M 149.76 -57.75 L 157.46 -57.75 L 165.93 -71.61 L 157.46 -71.61 Z M 157 -14.32 L 157 -39.58 C 157 -44.51 158.85 -46.2 163.7 -46.2 C 168.55 -46.2 170.32 -44.35 170.32 -39.58 L 170.32 -14.32 C 170.32 -9.47 168.48 -7.7 163.7 -7.7 C 158.77 -7.7 157 -9.55 157 -14.32 Z M 162.08 -57.75 L 169.78 -57.75 L 178.25 -71.61 L 169.78 -71.61 Z M 217.76 -53.9 L 217.76 0 L 226.23 0 L 226.23 -18.94 L 229.38 -23.79 L 239.93 0 L 249.94 0 L 234.85 -32.34 L 248.56 -53.9 L 239.32 -53.9 L 226.23 -33.65 L 226.23 -53.9 Z M 268.88 -53.9 L 259.64 0 L 268.11 0 L 269.04 -5.39 L 280.51 -5.39 L 281.43 0 L 289.9 0 L 280.66 -53.9 Z M 270.5 -13.86 L 274.81 -38.88 L 279.05 -13.86 Z M 317.86 -53.9 L 303.61 -53.9 L 303.61 0 L 317.78 0 C 327.79 0 333.87 -6.62 333.87 -16.09 C 333.87 -21.25 332.1 -25.41 329.1 -28.18 C 331.56 -30.8 332.95 -34.42 332.95 -38.81 C 332.95 -47.66 327.02 -53.9 317.86 -53.9 Z M 312.08 -8.47 L 312.08 -23.72 L 317.78 -23.72 C 323.32 -23.72 325.4 -21.79 325.4 -16.09 C 325.4 -10.55 323.48 -8.47 317.78 -8.47 Z M 312.08 -32.19 L 312.08 -45.43 L 317.86 -45.43 C 322.78 -45.43 324.48 -43.66 324.48 -38.81 C 324.48 -33.88 322.71 -32.19 317.86 -32.19 Z M 347.89 -53.9 L 347.89 0 L 356.36 0 L 356.36 -53.9 Z M 371.37 -53.9 L 371.37 0 L 379.84 0 L 379.84 -31.88 L 393.16 0 L 401.63 0 L 401.63 -53.9 L 393.16 -53.9 L 393.16 -20.25 L 379.07 -53.9 Z" stroke-linecap="round"></path>
</g>
</g>
</g>
</svg></svg></g></svg>